
<svg xmlns="http://www.w3.org/2000/svg" version="1.1" xmlns:xlink="http://www.w3.org/1999/xlink" preserveAspectRatio="none" x="0px" y="0px" width="61px" height="59px" viewBox="0 0 61 59">
<defs>
<g id="Layer0_0_FILL">
<path fill="#620000" stroke="none" d="
M 34.2 0
Q 32.3 0 25.1 2.4 19.3 4.35 17.6 5.1 12.6 7.35 6.75 12.65 0 18.7 0 22.55 0 26.25 5.25 28.8 10.35 31.35 21.2 33.2 21.9 33.35 23.7 33.55
L 23.55 34.15 23.3 34.1 21.85 34.1 22.75 34.15
Q 20.45 35.85 18.8 37.85 17.5 39.45 17.5 39.85 17.5 40.3 18.45 41.1 19.3 41.75 21.25 43 20.3 44.6 19.2 45.9 18.6 46.55 17.6 47.6 16.25 49.25 16.25 53.1 16.25 55.45 19.85 57.05 25.05 59.4 36.75 59.4 41.95 59.4 45.6 54.95 48.95 50.85 48.95 45.9 48.95 44.15 48.2 42.55 47.45 40.95 47.45 39.4 47.45 38.6 48.7 37.5 49.9 36.45 49.9 35.9 49.9 34.7 49.55 34.4 49.25 34.15 46.6 32.8 57.35 31.85 60.55 26.55 63.4 21.85 59.9 15.4 56.55 9.2 49.5 4.75 41.9 0 34.2 0
M 36.45 1.3
L 37.15 1.35 37.35 1.35
Q 38.05 1.4 38.85 1.55 40.9 1.85 43.1 2.55 45.75 3.45 46.65 4.1 50.15 6.35 52.5 9.15 54.85 11.95 55.2 12.15 56.2 13.05 57.45 15.25 59.35 18.4 59.35 21.05 59.35 22.25 59.3 23.3 59.3 26.6 55.25 28.9 51.25 31.2 45.55 31.2
L 40.15 32.15 39 32.3
Q 23.6 32 20.8 31.5 18.4 30.7 12.75 29.8
L 10.55 29.25
Q 7.6 28.35 5.9 27.6 4.3 26.85 3.15 25.75 2.65 25.2 2.15 23.95
L 1.75 22.8
Q 1.75 20.65 4.7 17.35 7.05 14.75 13 9.6 15.6 8.05 17.35 6.65 19.15 5.4 24.65 2.95 26.6 2.3 29.7 1.7 32.4 1.2 32.95 1.2 34.7 1.2 36.45 1.3
M 46.6 34.5
Q 46.95 34.5 47.65 34.85 48.55 35.25 48.55 35.65 48.55 37.3 45.9 39.05 43.5 40.65 41.8 40.85
L 41.25 40.75
Q 40.75 40.6 40.25 40.35 39.75 40.05 39.5 40 39.3 40.1 38.85 40.4 38.4 40.7 38.35 40.8
L 37.15 42.25 36.85 42.45
Q 36.5 41.45 36.25 40.9 35.85 39.9 34.85 39.9 34.55 39.9 33.15 41 31.65 42.3 31.3 42.45 31.15 41.95 31 41.6 30.7 40.95 30.1 40.95 29.2 40.95 28.35 42.05 27.5 43.1 27 43.1 24.35 43.1 22.6 41.95 20.75 40.4 19.55 39.6
L 21.1 37.45
Q 22.2 35.9 22.75 35.6 22.85 35.65 23 35.65 23.05 35.75 23.05 36.05 23.05 36.65 24 37.2 25.6 38.25 29.25 38.25 36.05 38.25 40.95 36.45 43.4 35.6 44.5 34.65 44.5 34.3 44.95 34.25 45.2 34.25 45.75 34.25 46.35 34.25 46.6 34.5
M 39.5 34.05
Q 42.35 33.4 41.5 34.45 39.65 35.9 34.85 36.5 31.9 36.85 28.3 36.85 28 36.85 27.1 36.7
L 26.2 36.55
Q 26.35 35.85 26.45 35.35 26.6 35.25 26.85 34.7 27.1 34.15 31.85 34.45 36.6 34.7 39.5 34.05
M 39.35 41.65
Q 39.8 41.9 41.35 42.2 42.75 42.45 43.25 42.45 44.45 42.45 45.95 41.35 46.85 43.65 46.85 47.35 46.85 50.35 44.75 53.15 42.6 55.9 37.8 56.7 35.1 57.1 32.65 57.1 23.95 56.55 20.45 54.6 18.05 53.25 18.05 51.05 18.05 50.4 20.15 47.4 21.2 45.8 22.75 43.7 23.05 43.85 23.95 44.15
L 24.25 44.2
Q 26.15 44.65 27.25 44.65 27.6 44.65 28.1 44.3 28.4 44.15 29.7 43.1 30.05 43.8 30.3 44.1 30.65 44.45 31.15 44.45 31.6 44.45 32.65 43.5 34.1 42.2 34.55 41.9 35.55 43.35 36.2 43.75 36.7 44.1 37.6 44.1 38.1 44.1 38.7 43.3 39.25 42.5 39.35 41.65
M 13.1 10.1
Q 10.5 11.6 9.1 13.95 8.1 15.55 8.1 16.5 8.1 16.55 9.1 18.95 10.6 21.3 13.35 21.3 13.65 21.3 13.7 21.15 13.75 20.85 13.85 20.6 15.05 23.35 19.2 23.35 24.1 23.35 27.9 20.6 31.4 18.1 31.4 15.35 31.4 12.4 30.05 10.25 28.65 8 26.55 7.9 25.9 7.85 24.75 7.95 23.65 8.05 22.9 8.25
L 22.85 8.25 21.4 8.85
Q 20.75 9.15 20.45 9.2
L 20.25 9.2
Q 19.35 7.9 16.2 8.85 13.2 10.05 13.1 10.1
M 11.35 13.95
Q 11.05 14.25 11 14.25
L 10.75 14.6
Q 11.25 13.4 13.85 11.75 16.65 10.1 18.15 10.3 18.25 10.4 18.35 10.45 18.4 10.55 18.4 10.85 18.4 11.75 17.6 13.4 18.65 12.4 20.15 11.5 23.3 9.65 26.4 9.65 28 9.65 28.85 10.8 29.75 11.95 29.75 14 29.75 15.4 27.25 18.25 24.35 21.55 21.4 21.55 16.9 21.55 15.55 19.7 14.9 18.8 15.1 17.65 14.4 18.65 13.7 19.55 10.25 18.45 10.4 17.15 10.5 15.8 10.6 15.85 10.65 15.9 10.85 16.25 11.4 17.1 12.6 17.1 13.55 17.1 13.9 16.25 14.1 15.8 14.1 15.25 14.1 13.85 11.8 13.85 11.45 13.85 11.35 13.95
M 16.45 16.7
Q 16.45 17.7 17.15 18.35 17.8 19.05 18.8 19.05 19.8 19.05 20.45 18.35 21.15 17.7 21.15 16.7 21.15 15.75 20.45 15.05 19.8 14.35 18.8 14.35 17.8 14.35 17.15 15.05 16.45 15.75 16.45 16.7
M 26.8 22.6
Q 23.55 23.7 23.2 23.85 23.6 23.85 25.75 24 27.4 24 30.45 21.8 33.4 19.7 33.4 18.75 33.4 18.25 33.15 18.1 32.85 18.1 32.7 18.05 30.35 21 26.8 22.6
M 7.15 15.65
L 6.85 15.85
Q 6.7 16.1 6.5 16.7 6.25 17.3 6.25 17.35 6.25 17.8 6.7 18.9 7.3 20.2 7.8 20.2 8.35 20.2 8.6 20 8.1 19.55 7.4 17.8 6.65 16.05 7.15 15.65 Z"/>

<path fill="#FFFAF2" stroke="none" d="
M 24.3 44.4
L 23.95 44.15
Q 23.05 43.85 22.75 43.7 21.2 45.8 20.15 47.4 18.05 50.4 18.05 51.05 18.05 53.25 20.45 54.6 23.95 56.55 32.65 57.1 32.85 56.75 36.1 51.75 37.8 49.1 37.8 46.8 37.8 45.3 36.35 45.3 35.6 45.7 34.75 46.1 33 47 32 47.2
L 30.65 47.2
Q 30.95 45.8 29.4 45.7 29.2 45.7 29 45.7 28.8 45.7 28.55 45.75 28.05 45.95 27.45 46.65 26.7 47.65 26.6 47.7
L 24.85 45.05 24.3 44.4
M 39.5 40
Q 42.15 38.35 43.5 37.15 44.3 36.45 46.3 34.65
L 46.6 34.5
Q 46.35 34.25 45.75 34.25 45.2 34.25 44.95 34.25 44.5 34.3 44.5 34.65 43.4 35.6 40.95 36.45 36.05 38.25 29.25 38.25 25.6 38.25 24 37.2 23.05 36.65 23.05 36.05 23.05 35.75 23 35.65 22.85 35.65 22.75 35.6 22.2 35.9 21.1 37.45
L 19.55 39.6
Q 20.75 40.4 22.6 41.95 24.35 43.1 27 43.1 27.5 43.1 28.35 42.05 29.2 40.95 30.1 40.95 30.7 40.95 31 41.6 31.15 41.95 31.3 42.45 31.65 42.3 33.15 41 34.55 39.9 34.85 39.9 35.85 39.9 36.25 40.9 36.5 41.45 36.85 42.45
L 37.15 42.25
Q 37.2 42.15 37.35 41.75 37.55 41.3 38.35 40.8 38.4 40.7 38.85 40.4 39.3 40.1 39.5 40
M 54.25 14.55
Q 54.25 13.85 54.45 12.55 52.35 13.45 51.45 15.7 50.85 17.15 50.85 19 50.85 19.95 51.25 20.4 51.85 21.15 54.3 22.75 55.2 21.6 55.2 21.25 54.95 20 54.75 18.75 54.25 16.2 54.25 14.55
M 38 23.55
Q 36.35 25.35 35.85 26.65 35.85 28.9 36.95 30.5 38.05 32.05 39.65 32.05
L 40.15 32.15
Q 42.9 30.5 43.8 29.6 44.75 28.6 44.75 27.4 44.75 26.35 42.85 24.45 40.95 22.55 40.95 21.95
L 41 21.4
Q 39.65 21.9 38 23.55
M 3.15 25.75
Q 4.3 26.85 5.9 27.6 7.6 28.35 10.55 29.25 11.25 26.75 11.25 25.75 11.25 25.25 10.75 23.45 10.1 21.2 10 20.85 7.15 20.85 5.15 22.3 3.15 23.7 3.15 25.75
M 13 9.6
L 13.1 10.1
Q 13.2 10.05 16.2 8.85 19.35 7.9 20.25 9.2
L 21.4 8.85 22.85 8.25 22.9 8.25
Q 24.1 7.9 25.4 6.25 26.55 4.7 26.9 3.25 26.1 3 24.65 2.95 19.15 5.4 17.35 6.65 15.6 8.05 13 9.6
M 11 14.25
Q 11.05 14.25 11.35 13.95 11.45 13.85 11.8 13.85 14.1 13.85 14.1 15.25 14.1 15.8 13.9 16.25 13.55 17.1 12.6 17.1 11.4 17.1 10.85 16.25 10.65 15.9 10.6 15.85 10.5 15.8 10.4 17.15 10.25 18.45 13.7 19.55 14.4 18.65 15.1 17.65 14.9 18.8 15.55 19.7 16.9 21.55 21.4 21.55 24.35 21.55 27.25 18.25 29.75 15.4 29.75 14 29.75 11.95 28.85 10.8 28 9.65 26.4 9.65 23.3 9.65 20.15 11.5 18.65 12.4 17.6 13.4 18.4 11.75 18.4 10.85 18.4 10.55 18.35 10.45 18.25 10.4 18.15 10.3 16.65 10.1 13.85 11.75 11.25 13.4 10.75 14.6
L 11 14.25
M 17.15 18.35
Q 16.45 17.7 16.45 16.7 16.45 15.75 17.15 15.05 17.8 14.35 18.8 14.35 19.8 14.35 20.45 15.05 21.15 15.75 21.15 16.7 21.15 17.7 20.45 18.35 19.8 19.05 18.8 19.05 17.8 19.05 17.15 18.35
M 37.2 1.8
Q 37.8 2.65 38 2.85 38.7 3.45 40.45 4.2
L 41.65 4.5
Q 41.65 3.2 40.4 2.25 39.7 1.75 38.85 1.55 38.05 1.4 37.35 1.35
L 37.15 1.35 37.2 1.8
M 34.7 9.85
Q 33.95 11 34.95 12.05 36 13.15 38.95 13.7 40.2 12.65 40.6 10.5 40.85 8.35 40.95 7.9 39.6 7.65 37.5 8.2 35.45 8.7 34.7 9.85 Z"/>

<path fill="#FCEFD8" stroke="none" d="
M 28.55 45.75
Q 26.3 45.9 24.85 45.05
L 26.6 47.7
Q 26.7 47.65 27.45 46.65 28.05 45.95 28.55 45.75
M 24.25 44.2
L 23.95 44.15 24.3 44.4 24.25 44.2
M 41.35 43.8
Q 40.95 44.6 40.05 44.85 39.5 45 38.45 45 35.75 45 34.45 43.7 33.15 45.05 30.05 45.6 29.7 45.65 29.4 45.7 30.95 45.8 30.65 47.2
L 32 47.2
Q 33 47 34.75 46.1 35.6 45.7 36.35 45.3 37.8 45.3 37.8 46.8 37.8 49.1 36.1 51.75 32.85 56.75 32.65 57.1 35.1 57.1 37.8 56.7 40.2 52.4 40.6 50.4 40.85 47.55 41.4 44.4
L 41.35 43.8
M 37.35 41.75
Q 37.2 42.15 37.15 42.25
L 38.35 40.8
Q 37.55 41.3 37.35 41.75
M 43.5 37.15
Q 42.15 38.35 39.5 40 39.75 40.05 40.25 40.35 40.75 40.6 41.25 40.75 43.35 40.75 44.8 38.95 46.3 37.15 46.3 34.65 44.3 36.45 43.5 37.15 Z"/>

<path fill="#FCE5BD" stroke="none" d="
M 40.05 44.85
Q 40.95 44.6 41.35 43.8
L 41.4 44.4
Q 40.85 47.55 40.6 50.4 40.2 52.4 37.8 56.7 42.6 55.9 44.75 53.15 46.85 50.35 46.85 47.35 46.85 43.65 45.95 41.35 44.45 42.45 43.25 42.45 42.75 42.45 41.35 42.2 39.8 41.9 39.35 41.65 39.25 42.5 38.7 43.3 38.1 44.1 37.6 44.1 36.7 44.1 36.2 43.75 35.55 43.35 34.55 41.9 34.1 42.2 32.65 43.5 31.6 44.45 31.15 44.45 30.65 44.45 30.3 44.1 30.05 43.8 29.7 43.1 28.4 44.15 28.1 44.3 27.6 44.65 27.25 44.65 26.15 44.65 24.25 44.2
L 24.3 44.4 24.85 45.05
Q 26.3 45.9 28.55 45.75 28.8 45.7 29 45.7 29.2 45.7 29.4 45.7 29.7 45.65 30.05 45.6 33.15 45.05 34.45 43.7 35.75 45 38.45 45 39.5 45 40.05 44.85
M 41.5 34.45
Q 42.35 33.4 39.5 34.05 36.6 34.7 31.85 34.45 27.1 34.15 26.85 34.7 26.6 35.25 26.45 35.35 26.35 35.85 26.2 36.55
L 27.1 36.7
Q 28 36.85 28.3 36.85 31.9 36.85 34.85 36.5 39.65 35.9 41.5 34.45
M 47.65 34.85
Q 46.95 34.5 46.6 34.5
L 46.3 34.65
Q 46.3 37.15 44.8 38.95 43.35 40.75 41.25 40.75
L 41.8 40.85
Q 43.5 40.65 45.9 39.05 48.55 37.3 48.55 35.65 48.55 35.25 47.65 34.85
M 45.7 24.45
Q 44 22.2 43.2 21.6 43.05 21.55 41.4 21.25
L 41 21.35 41 21.4 40.95 21.95
Q 40.95 22.55 42.85 24.45 44.75 26.35 44.75 27.4 44.75 28.6 43.8 29.6 42.9 30.5 40.15 32.15
L 45.55 31.2
Q 46.5 30.65 47.1 29.7 47.6 28.8 47.6 27.85 47.6 26.9 45.7 24.45
M 45.15 4.7
Q 45.25 4.65 46.65 4.1 45.75 3.45 43.1 2.55 40.9 1.85 38.85 1.55 39.7 1.75 40.4 2.25 41.65 3.2 41.65 4.5 44.5 4.75 45.15 4.7
M 54.45 12.55
Q 54.25 13.85 54.25 14.55 54.25 16.2 54.75 18.75 54.95 20 55.2 21.25 55.2 21.6 54.3 22.75 55.7 23.7 57.2 23.7 58.15 23.7 59.3 23.3 59.35 22.25 59.35 21.05 59.35 18.4 57.45 15.25 56.2 13.05 55.2 12.15
L 54.45 12.55
M 20.25 9.2
L 20.45 9.2
Q 20.75 9.15 21.4 8.85
L 20.25 9.2
M 24.75 7.95
Q 25.9 7.85 26.55 7.9 27.75 6.85 28.3 5 28.3 4.1 26.9 3.25 26.55 4.7 25.4 6.25 24.1 7.9 22.9 8.25 23.65 8.05 24.75 7.95
M 10.75 23.45
Q 11.25 25.25 11.25 25.75 11.25 26.75 10.55 29.25
L 12.75 29.8
Q 13.35 29.15 13.75 28.6 13.75 25.4 12.65 23.15 11.55 20.85 10 20.85 10.1 21.2 10.75 23.45
M 38.95 13.7
Q 42.15 13.35 42.15 9.85 42.15 8.8 40.95 7.9 40.85 8.35 40.6 10.5 40.2 12.65 38.95 13.7 Z"/>

<path fill="#AD0000" stroke="none" d="
M 39 32.3
L 39.65 32.05
Q 38.05 32.05 36.95 30.5 35.85 28.9 35.85 26.65 27.65 28.4 25.75 28.65 24.3 28.8 13.75 28.6 13.35 29.15 12.75 29.8 18.4 30.7 20.8 31.5 23.6 32 39 32.3
M 55.2 12.15
Q 54.85 11.95 52.5 9.15 50.15 6.35 46.65 4.1 45.25 4.65 45.15 4.7 44.5 4.75 41.65 4.5
L 40.45 4.2
Q 42.4 6 43.8 8.45 45.4 11.2 45.4 13.3 45.4 15.8 44.6 18.4 44 20.5 43.2 21.6 44 22.2 45.7 24.45 47.6 26.9 47.6 27.85 47.6 28.8 47.1 29.7 46.5 30.65 45.55 31.2 51.25 31.2 55.25 28.9 59.3 26.6 59.3 23.3 58.15 23.7 57.2 23.7 55.7 23.7 54.3 22.75 51.85 21.15 51.25 20.4 50.85 19.95 50.85 19 50.85 17.15 51.45 15.7 52.35 13.45 54.45 12.55
L 55.2 12.15
M 37.15 1.35
L 36.45 1.3 37.2 1.8 37.15 1.35 Z"/>

<path fill="#CC0000" stroke="none" d="
M 39 32.3
L 40.15 32.15 39.65 32.05 39 32.3
M 38 2.85
Q 37.8 2.65 37.2 1.8
L 36.45 1.3
Q 34.7 1.2 32.95 1.2 32.4 1.2 29.7 1.7 26.6 2.3 24.65 2.95 26.1 3 26.9 3.25 28.3 4.1 28.3 5 27.75 6.85 26.55 7.9 28.65 8 30.05 10.25 31.4 12.4 31.4 15.35 31.4 18.1 27.9 20.6 24.1 23.35 19.2 23.35 15.05 23.35 13.85 20.6 13.75 20.85 13.7 21.15 13.65 21.3 13.35 21.3 10.6 21.3 9.1 18.95 8.1 16.55 8.1 16.5 8.1 15.55 9.1 13.95 10.5 11.6 13.1 10.1
L 13 9.6
Q 7.05 14.75 4.7 17.35 1.75 20.65 1.75 22.8
L 2.15 23.95
Q 2.65 25.2 3.15 25.75 3.15 23.7 5.15 22.3 7.15 20.85 10 20.85 11.55 20.85 12.65 23.15 13.75 25.4 13.75 28.6 24.3 28.8 25.75 28.65 27.65 28.4 35.85 26.65 36.35 25.35 38 23.55 39.65 21.9 41 21.4
L 41 21.35 41.4 21.25
Q 43.05 21.55 43.2 21.6 44 20.5 44.6 18.4 45.4 15.8 45.4 13.3 45.4 11.2 43.8 8.45 42.4 6 40.45 4.2 38.7 3.45 38 2.85
M 6.85 15.85
L 7.15 15.65
Q 6.65 16.05 7.4 17.8 8.1 19.55 8.6 20 8.35 20.2 7.8 20.2 7.3 20.2 6.7 18.9 6.25 17.8 6.25 17.35 6.25 17.3 6.5 16.7 6.7 16.1 6.85 15.85
M 34.95 12.05
Q 33.95 11 34.7 9.85 35.45 8.7 37.5 8.2 39.6 7.65 40.95 7.9 42.15 8.8 42.15 9.85 42.15 13.35 38.95 13.7 36 13.15 34.95 12.05
M 23.2 23.85
Q 23.55 23.7 26.8 22.6 30.35 21 32.7 18.05 32.85 18.1 33.15 18.1 33.4 18.25 33.4 18.75 33.4 19.7 30.45 21.8 27.4 24 25.75 24 23.6 23.85 23.2 23.85 Z"/>
</g>
</defs>

<g transform="matrix( 1, 0, 0, 1, 0,0) ">
<use xlink:href="#Layer0_0_FILL"/>
</g>
</svg>
